<?xml version="1.0" encoding="UTF-8" standalone="no"?>
<svg
   xmlns:dc="http://purl.org/dc/elements/1.1/"
   xmlns:cc="http://creativecommons.org/ns#"
   xmlns:rdf="http://www.w3.org/1999/02/22-rdf-syntax-ns#"
   xmlns:svg="http://www.w3.org/2000/svg"
   xmlns="http://www.w3.org/2000/svg"
   width="53.946342"
   height="54.959675"
   viewBox="0 0 53.946342 54.959677"
   id="svg4169"
   version="1.1">
  <title
     id="title5421">YumJam Require Login Icon</title>
  <defs
     id="defs4171" />
  <metadata
     id="metadata4174">
    <rdf:RDF>
      <cc:Work
         rdf:about="">
        <dc:format>image/svg+xml</dc:format>
        <dc:type
           rdf:resource="http://purl.org/dc/dcmitype/StillImage" />
        <dc:title>YumJam Require Login Icon</dc:title>
      </cc:Work>
    </rdf:RDF>
  </metadata>
  <g
     transform="matrix(1.4715589,0,0,1.4715589,2.7489747,2.7014478)"
     style="fill:#9f0945;fill-opacity:1"
     id="g3686">
    <path
       style="fill:#9f0945;fill-opacity:1"
       id="path3682"
       d="m 8.673,4.791 15.654,0 c 0,0 1.508,-0.718 1.508,-2.09 0,-1.989 -1.855,-2.201 -2.842,-2.201 -0.985,0 -6.493,0 -6.493,0 0,0 -5.508,0 -6.493,0 -0.986,0 -2.842,0.212 -2.842,2.201 0,1.372 1.508,2.09 1.508,2.09 z" />
    <path
       style="fill:#9f0945;fill-opacity:1"
       id="path3684"
       d="m 24.998,5.864 -16.997,0 -1.504,2.407 c 2.5,0 2.5,1.856 5,1.856 2.5,0 2.5,-1.856 5,-1.856 2.502,0 2.502,1.856 5.004,1.856 2.502,0 2.502,-1.856 5.002,-1.856 L 24.998,5.864 Z" />
  </g>
  <path
     style="fill:#9c0945;fill-opacity:1"
     id="path3688"
     d="m 45.362378,40.798636 0,-7.084084 c 0,-7.17385 -0.286954,-10.362718 -3.072615,-13.894459 -0.741666,-0.94327 -1.345005,-1.911555 -1.843864,-2.86954 -2.194094,0.668087 -2.751815,2.538439 -5.858276,2.538439 -3.780434,0 -4.526515,-2.773889 -7.557926,-2.773889 -3.031412,0 -3.780435,2.773889 -7.56087,2.773889 -3.103518,0 -3.661239,-1.86888 -5.856805,-2.538439 -0.497386,0.956513 -1.100726,1.92627 -1.842391,2.86954 -2.7856612,3.531741 -3.0726152,6.720609 -3.0726152,13.894459 l 0,7.084084 c 0,2.199981 -0.6842749,9.728476 8.3628692,9.728476 l 9.969812,0 9.969811,0 c 9.045673,0 8.36287,-7.528495 8.36287,-9.728476 z" />
  <g
     transform="translate(14.686582,11.033089)"
     style="display:inline"
     id="layer2" />
  <g
     style="fill:#ffffff"
     transform="matrix(0.93061325,0,0,0.93061325,11.905446,21.32646)"
     id="surface1">
    <path
       style="fill:#ffffff"
       d="M 16,0 C 13.789063,0 11.878906,0.917969 10.6875,2.40625 9.496094,3.894531 9,5.824219 9,7.90625 L 9,9 12,9 12,7.90625 C 12,6.328125 12.390625,5.085938 13.03125,4.28125 13.671875,3.476563 14.542969,3 16,3 17.460938,3 18.328125,3.449219 18.96875,4.25 19.609375,5.050781 20,6.308594 20,7.90625 L 20,9 23,9 23,7.90625 C 23,5.8125 22.472656,3.863281 21.28125,2.375 20.089844,0.886719 18.207031,0 16,0 Z M 9,10 c -1.65625,0 -3,1.34375 -3,3 l 0,10 c 0,1.65625 1.34375,3 3,3 l 14,0 c 1.65625,0 3,-1.34375 3,-3 l 0,-10 c 0,-1.65625 -1.34375,-3 -3,-3 z m 7,5 c 1.105469,0 2,0.894531 2,2 0,0.738281 -0.402344,1.371094 -1,1.71875 L 17,21 c 0,0.550781 -0.449219,1 -1,1 -0.550781,0 -1,-0.449219 -1,-1 l 0,-2.28125 C 14.402344,18.371094 14,17.738281 14,17 c 0,-1.105469 0.894531,-2 2,-2 z"
       id="path5411" />
  </g>
</svg>
